<?xml version="1.0" encoding="UTF-8" standalone="no"?>
<svg
   viewBox="0 0 384 512"
   version="1.1"
   id="svg20"
   sodipodi:docname="marker.svg"
   inkscape:version="1.2.1 (8a69933317, 2022-10-28, custom)"
   xmlns:inkscape="http://www.inkscape.org/namespaces/inkscape"
   xmlns:sodipodi="http://sodipodi.sourceforge.net/DTD/sodipodi-0.dtd"
   xmlns="http://www.w3.org/2000/svg"
   xmlns:svg="http://www.w3.org/2000/svg">
  <defs
     id="defs24" />
  <sodipodi:namedview
     id="namedview22"
     pagecolor="#ffffff"
     bordercolor="#666666"
     borderopacity="1.0"
     inkscape:showpageshadow="2"
     inkscape:pageopacity="0.0"
     inkscape:pagecheckerboard="0"
     inkscape:deskcolor="#d1d1d1"
     showgrid="false"
     inkscape:zoom="2.0058594"
     inkscape:cx="192.68549"
     inkscape:cy="255.75073"
     inkscape:window-width="2505"
     inkscape:window-height="1385"
     inkscape:window-x="55"
     inkscape:window-y="27"
     inkscape:window-maximized="1"
     inkscape:current-layer="svg20" />
  <!--! Font Awesome Pro 6.2.1 by @fontawesome - https://fontawesome.com License - https://fontawesome.com/license (Commercial License) Copyright 2022 Fonticons, Inc. -->
  <path
     d="M215.7 499.2C267 435 384 279.4 384 192C384 86 298 0 192 0S0 86 0 192c0 87.4 117 243 168.3 307.2c12.3 15.3 35.1 15.3 47.4 0zM192 256c-35.3 0-64-28.7-64-64s28.7-64 64-64s64 28.7 64 64s-28.7 64-64 64z"
     id="path18" />
  <path
     style="fill:#3366cc;fill-rule:evenodd;stroke-width:0.376849;stroke-linecap:round;stroke-dasharray:0.376849, 0.376849"
     d="m 185.70594,509.76385 c -5.58586,-1.23488 -11.49638,-4.54932 -15.26221,-8.55852 -5.03375,-5.35906 -35.4668,-45.0995 -51.86373,-67.72529 C 48.407297,336.65017 8.2368935,258.9862 1.2376426,206.61466 0.30579088,199.64213 0.18017744,183.63193 0.98949977,174.98734 5.2577769,129.39675 24.300401,88.808938 56.554672,56.554672 88.246695,24.862648 128.59358,5.6659027 172.84441,1.2248824 182.02192,0.30382643 200.31431,0.18527291 209.13729,0.98966713 242.98394,4.0754774 276.09548,16.365624 303.4465,35.994804 c 12.7936,9.18167 28.33371,23.825177 37.66288,35.489878 22.18068,27.73357 35.88,59.312278 40.79183,94.030408 2.97071,20.99785 2.31647,38.10101 -2.20265,57.58131 -10.48799,45.20993 -42.87013,107.61167 -95.20421,183.46251 -23.75351,34.42734 -65.9199,90.1542 -73.10284,96.61226 -6.57826,5.91442 -16.83978,8.54825 -25.68557,6.59268 z m 15.62331,-254.29887 c 13.66505,-2.02907 26.23592,-8.35842 36.00661,-18.12912 7.29388,-7.29388 12.70795,-16.18382 15.80697,-25.95514 2.21509,-6.98427 2.84317,-11.35243 2.83149,-19.69231 -0.0116,-8.24596 -0.74626,-12.83635 -3.26391,-20.39246 -7.20209,-21.61535 -26.54537,-38.36049 -48.96621,-42.38918 -8.50465,-1.52815 -17.77832,-1.42059 -25.26708,0.29307 -8.01575,1.83425 -17.11758,5.81797 -23.35667,10.22283 -4.61903,3.26108 -11.91433,10.4924 -15.22739,15.09382 -8.8911,12.34867 -13.26232,28.28618 -11.81723,43.08571 1.93386,19.80504 12.28915,37.22385 28.47479,47.89791 13.30145,8.772 29.11393,12.29085 44.77863,9.96487 z"
     id="path268" />
</svg>
